
            <svg id="trend-chart" width="660" height="400" title="Stack Overflow Trends Chart" version="1.1" xmlns="http://www.w3.org/2000/svg"><g></g><g class="chart-area" transform="translate(100, 20)"><g transform="translate(0,300)" fill="none" font-size="10" font-family="sans-serif" text-anchor="middle"><path class="domain" stroke="#000" d="M0.5,6V0.5H410.5V6"></path><g class="tick" opacity="1" transform="translate(15.27064573700008,0)"><line stroke="#000" y2="6" x1="0.5" x2="0.5"></line><text fill="#000" y="9" x="0.5" dy="0.71em" style="font-size: 12px;">2009</text></g><g class="tick" opacity="1" transform="translate(51.69069927800763,0)"><line stroke="#000" y2="6" x1="0.5" x2="0.5"></line><text fill="#000" y="9" x="0.5" dy="0.71em" style="font-size: 12px;">2010</text></g><g class="tick" opacity="1" transform="translate(88.11075281901518,0)"><line stroke="#000" y2="6" x1="0.5" x2="0.5"></line><text fill="#000" y="9" x="0.5" dy="0.71em" style="font-size: 12px;">2011</text></g><g class="tick" opacity="1" transform="translate(124.53080636002271,0)"><line stroke="#000" y2="6" x1="0.5" x2="0.5"></line><text fill="#000" y="9" x="0.5" dy="0.71em" style="font-size: 12px;">2012</text></g><g class="tick" opacity="1" transform="translate(161.05064086963574,0)"><line stroke="#000" y2="6" x1="0.5" x2="0.5"></line><text fill="#000" y="9" x="0.5" dy="0.71em" style="font-size: 12px;">2013</text></g><g class="tick" opacity="1" transform="translate(197.4706944106433,0)"><line stroke="#000" y2="6" x1="0.5" x2="0.5"></line><text fill="#000" y="9" x="0.5" dy="0.71em" style="font-size: 12px;">2014</text></g><g class="tick" opacity="1" transform="translate(233.89074795165087,0)"><line stroke="#000" y2="6" x1="0.5" x2="0.5"></line><text fill="#000" y="9" x="0.5" dy="0.71em" style="font-size: 12px;">2015</text></g><g class="tick" opacity="1" transform="translate(270.3108014926584,0)"><line stroke="#000" y2="6" x1="0.5" x2="0.5"></line><text fill="#000" y="9" x="0.5" dy="0.71em" style="font-size: 12px;">2016</text></g><g class="tick" opacity="1" transform="translate(306.83063600227143,0)"><line stroke="#000" y2="6" x1="0.5" x2="0.5"></line><text fill="#000" y="9" x="0.5" dy="0.71em" style="font-size: 12px;">2017</text></g><g class="tick" opacity="1" transform="translate(343.250689543279,0)"><line stroke="#000" y2="6" x1="0.5" x2="0.5"></line><text fill="#000" y="9" x="0.5" dy="0.71em" style="font-size: 12px;">2018</text></g><g class="tick" opacity="1" transform="translate(379.6707430842865,0)"><line stroke="#000" y2="6" x1="0.5" x2="0.5"></line><text fill="#000" y="9" x="0.5" dy="0.71em" style="font-size: 12px;">2019</text></g></g><g class="grid-lines" transform="translate(0,300)" fill="none" font-size="10" font-family="sans-serif" text-anchor="middle"><path class="domain" stroke="#000" d="M0.5,-300V0.5H410.5V-300"></path><g class="tick" opacity="1" transform="translate(15.27064573700008,0)"><line stroke="#000" y2="-300" x1="0.5" x2="0.5" style="stroke: #ccc; fill: none;"></line></g><g class="tick" opacity="1" transform="translate(51.69069927800763,0)"><line stroke="#000" y2="-300" x1="0.5" x2="0.5" style="stroke: #ccc; fill: none;"></line></g><g class="tick" opacity="1" transform="translate(88.11075281901518,0)"><line stroke="#000" y2="-300" x1="0.5" x2="0.5" style="stroke: #ccc; fill: none;"></line></g><g class="tick" opacity="1" transform="translate(124.53080636002271,0)"><line stroke="#000" y2="-300" x1="0.5" x2="0.5" style="stroke: #ccc; fill: none;"></line></g><g class="tick" opacity="1" transform="translate(161.05064086963574,0)"><line stroke="#000" y2="-300" x1="0.5" x2="0.5" style="stroke: #ccc; fill: none;"></line></g><g class="tick" opacity="1" transform="translate(197.4706944106433,0)"><line stroke="#000" y2="-300" x1="0.5" x2="0.5" style="stroke: #ccc; fill: none;"></line></g><g class="tick" opacity="1" transform="translate(233.89074795165087,0)"><line stroke="#000" y2="-300" x1="0.5" x2="0.5" style="stroke: #ccc; fill: none;"></line></g><g class="tick" opacity="1" transform="translate(270.3108014926584,0)"><line stroke="#000" y2="-300" x1="0.5" x2="0.5" style="stroke: #ccc; fill: none;"></line></g><g class="tick" opacity="1" transform="translate(306.83063600227143,0)"><line stroke="#000" y2="-300" x1="0.5" x2="0.5" style="stroke: #ccc; fill: none;"></line></g><g class="tick" opacity="1" transform="translate(343.250689543279,0)"><line stroke="#000" y2="-300" x1="0.5" x2="0.5" style="stroke: #ccc; fill: none;"></line></g><g class="tick" opacity="1" transform="translate(379.6707430842865,0)"><line stroke="#000" y2="-300" x1="0.5" x2="0.5" style="stroke: #ccc; fill: none;"></line></g></g><text x="205" y="360" class="axis-label x-axis-label" style="text-anchor: middle; font-weight: bold;">Year</text><g fill="none" font-size="10" font-family="sans-serif" text-anchor="end"><path class="domain" stroke="#000" d="M-6,300.5H0.5V0.5H-6"></path><g class="tick" opacity="1" transform="translate(0,300)"><line stroke="#000" x2="-6" y1="0.5" y2="0.5"></line><text fill="#000" x="-9" y="0.5" dy="0.32em" style="font-size: 12px;">0.00%</text></g><g class="tick" opacity="1" transform="translate(0,278.57142857142856)"><line stroke="#000" x2="-6" y1="0.5" y2="0.5"></line><text fill="#000" x="-9" y="0.5" dy="0.32em" style="font-size: 12px;">1.00%</text></g><g class="tick" opacity="1" transform="translate(0,257.14285714285717)"><line stroke="#000" x2="-6" y1="0.5" y2="0.5"></line><text fill="#000" x="-9" y="0.5" dy="0.32em" style="font-size: 12px;">2.00%</text></g><g class="tick" opacity="1" transform="translate(0,235.71428571428572)"><line stroke="#000" x2="-6" y1="0.5" y2="0.5"></line><text fill="#000" x="-9" y="0.5" dy="0.32em" style="font-size: 12px;">3.00%</text></g><g class="tick" opacity="1" transform="translate(0,214.28571428571428)"><line stroke="#000" x2="-6" y1="0.5" y2="0.5"></line><text fill="#000" x="-9" y="0.5" dy="0.32em" style="font-size: 12px;">4.00%</text></g><g class="tick" opacity="1" transform="translate(0,192.85714285714286)"><line stroke="#000" x2="-6" y1="0.5" y2="0.5"></line><text fill="#000" x="-9" y="0.5" dy="0.32em" style="font-size: 12px;">5.00%</text></g><g class="tick" opacity="1" transform="translate(0,171.42857142857144)"><line stroke="#000" x2="-6" y1="0.5" y2="0.5"></line><text fill="#000" x="-9" y="0.5" dy="0.32em" style="font-size: 12px;">6.00%</text></g><g class="tick" opacity="1" transform="translate(0,150)"><line stroke="#000" x2="-6" y1="0.5" y2="0.5"></line><text fill="#000" x="-9" y="0.5" dy="0.32em" style="font-size: 12px;">7.00%</text></g><g class="tick" opacity="1" transform="translate(0,128.57142857142858)"><line stroke="#000" x2="-6" y1="0.5" y2="0.5"></line><text fill="#000" x="-9" y="0.5" dy="0.32em" style="font-size: 12px;">8.00%</text></g><g class="tick" opacity="1" transform="translate(0,107.14285714285717)"><line stroke="#000" x2="-6" y1="0.5" y2="0.5"></line><text fill="#000" x="-9" y="0.5" dy="0.32em" style="font-size: 12px;">9.00%</text></g><g class="tick" opacity="1" transform="translate(0,85.71428571428572)"><line stroke="#000" x2="-6" y1="0.5" y2="0.5"></line><text fill="#000" x="-9" y="0.5" dy="0.32em" style="font-size: 12px;">10.00%</text></g><g class="tick" opacity="1" transform="translate(0,64.28571428571428)"><line stroke="#000" x2="-6" y1="0.5" y2="0.5"></line><text fill="#000" x="-9" y="0.5" dy="0.32em" style="font-size: 12px;">11.00%</text></g><g class="tick" opacity="1" transform="translate(0,42.85714285714289)"><line stroke="#000" x2="-6" y1="0.5" y2="0.5"></line><text fill="#000" x="-9" y="0.5" dy="0.32em" style="font-size: 12px;">12.00%</text></g><g class="tick" opacity="1" transform="translate(0,21.428571428571445)"><line stroke="#000" x2="-6" y1="0.5" y2="0.5"></line><text fill="#000" x="-9" y="0.5" dy="0.32em" style="font-size: 12px;">13.00%</text></g><g class="tick" opacity="1" transform="translate(0,0)"><line stroke="#000" x2="-6" y1="0.5" y2="0.5"></line><text fill="#000" x="-9" y="0.5" dy="0.32em" style="font-size: 12px;">14.00%</text></g></g><g class="grid-lines" fill="none" font-size="10" font-family="sans-serif" text-anchor="end"><path class="domain" stroke="#000" d="M410,300.5H0.5V0.5H410"></path><g class="tick" opacity="1" transform="translate(0,300)"><line stroke="#000" x2="410" y1="0.5" y2="0.5" style="stroke: #ccc; fill: none;"></line></g><g class="tick" opacity="1" transform="translate(0,278.57142857142856)"><line stroke="#000" x2="410" y1="0.5" y2="0.5" style="stroke: #ccc; fill: none;"></line></g><g class="tick" opacity="1" transform="translate(0,257.14285714285717)"><line stroke="#000" x2="410" y1="0.5" y2="0.5" style="stroke: #ccc; fill: none;"></line></g><g class="tick" opacity="1" transform="translate(0,235.71428571428572)"><line stroke="#000" x2="410" y1="0.5" y2="0.5" style="stroke: #ccc; fill: none;"></line></g><g class="tick" opacity="1" transform="translate(0,214.28571428571428)"><line stroke="#000" x2="410" y1="0.5" y2="0.5" style="stroke: #ccc; fill: none;"></line></g><g class="tick" opacity="1" transform="translate(0,192.85714285714286)"><line stroke="#000" x2="410" y1="0.5" y2="0.5" style="stroke: #ccc; fill: none;"></line></g><g class="tick" opacity="1" transform="translate(0,171.42857142857144)"><line stroke="#000" x2="410" y1="0.5" y2="0.5" style="stroke: #ccc; fill: none;"></line></g><g class="tick" opacity="1" transform="translate(0,150)"><line stroke="#000" x2="410" y1="0.5" y2="0.5" style="stroke: #ccc; fill: none;"></line></g><g class="tick" opacity="1" transform="translate(0,128.57142857142858)"><line stroke="#000" x2="410" y1="0.5" y2="0.5" style="stroke: #ccc; fill: none;"></line></g><g class="tick" opacity="1" transform="translate(0,107.14285714285717)"><line stroke="#000" x2="410" y1="0.5" y2="0.5" style="stroke: #ccc; fill: none;"></line></g><g class="tick" opacity="1" transform="translate(0,85.71428571428572)"><line stroke="#000" x2="410" y1="0.5" y2="0.5" style="stroke: #ccc; fill: none;"></line></g><g class="tick" opacity="1" transform="translate(0,64.28571428571428)"><line stroke="#000" x2="410" y1="0.5" y2="0.5" style="stroke: #ccc; fill: none;"></line></g><g class="tick" opacity="1" transform="translate(0,42.85714285714289)"><line stroke="#000" x2="410" y1="0.5" y2="0.5" style="stroke: #ccc; fill: none;"></line></g><g class="tick" opacity="1" transform="translate(0,21.428571428571445)"><line stroke="#000" x2="410" y1="0.5" y2="0.5" style="stroke: #ccc; fill: none;"></line></g><g class="tick" opacity="1" transform="translate(0,0)"><line stroke="#000" x2="410" y1="0.5" y2="0.5" style="stroke: #ccc; fill: none;"></line></g></g><g class="lines"><path class="line" d="M3.093210026770504,299.0774151222L6.086639084935507,300L9.179849111706012,299.82947181739286L12.177435710229577,299.82099597837856L15.27064573700008,298.91080391749284L18.363855763770584,298.8932158229357L21.15772288472459,299.57724150079287L24.24677537113653,298.78436695911427L27.24020442930153,299.83237320430715L30.333414456072035,299.6176882885286L33.32684351423704,296.59885116752145L36.42005354100754,296.89661092305L39.51326356777805,290.9015137961143L42.50669262594305,295.6591028019643L45.59990265271356,294.719536218L48.59748925123712,295.42454502820715L51.69069927800763,295.4863967681357L54.78390930477812,294.12401224005L57.57777642573213,294.2617153205357L60.66682891214407,293.10673644182145L63.660257970309075,294.23383260692145L66.75346799707958,293.11786494004286L69.74689705524459,291.70767547954284L72.84010708201508,290.4253663509857L75.93331710878559,291.68943854410713L78.92674616695061,292.77442009658574L82.0199561937211,292.5179784938357L85.01754279224467,293.09744264895L88.11075281901518,293.2831690545857L91.20396284578568,291.66777360497144L93.99782996673969,291.0249939032357L97.08688245315162,289.33589829375L100.08031151131662,290.87472948310716L103.17352153808713,290.4049237436357L106.16695059625212,290.34279531407145L109.26016062302264,288.2940003755571L112.35337064979313,287.1574623817286L115.34679970795814,286.8865429041643L118.44000973472863,288.0526626056357L121.43759633325222,287.32745525395717L124.53080636002271,287.2941124477286L127.6240163867932,285.97164456904284L130.5176644763527,285.78784823764283L133.60671696276466,285.97524224582145L136.60014602092969,285.9760033835786L139.69335604770018,284.0670036479143L142.68678510586517,283.06059670545L145.77999513263566,283.4336283186L148.87320515940618,282.78255558852857L151.86663421757117,281.8236724209214L154.9598442443417,280.44901940295L157.95743084286525,280.68525805362856L161.05064086963574,279.4337945918571L164.14385089640626,276.73390761945L166.93771801736028,277.1990707545857L170.0267705037722,276.98801448700715L173.0201995619372,277.04315493132856L176.11340958870773,275.95177933429284L179.10683864687272,276.04907397019286L182.20004867364324,275.7375833391429L185.29325870041373,277.8015908429357L188.28668775857872,275.5981661089286L191.37989778534921,273.41320154217857L194.3774843838728,275.2897942928357L197.4706944106433,273.27758012762143L200.5639044374138,270.16283510365713L203.3577715583678,270.95083285255714L206.44682404477973,269.8323752298857L209.44025310294475,268.52555056039284L212.53346312971524,268.38765194959285L215.52689218788026,268.03452769778573L218.62010221465076,267.45258953374287L221.7133122414213,269.3058722001214L224.70674129958627,265.42201320724286L227.7999513263568,265.10352022737857L230.79753792488037,267.3627624135857L233.89074795165087,265.05720103060713L236.98395797842136,261.9717555480214L239.77782509937535,259.5774800770714L242.8668775857873,262.22868491985L245.8603066439523,260.2525134440143L248.9535166707228,260.6468858797929L251.9469457288878,256.1445631208357L255.0401557556583,258.5348260848643L258.1333657824288,259.59040649005715L261.1267948405938,257.3992462943786L264.2200048673643,257.19619596829284L267.2175914658879,260.2299322657714L270.3108014926584,257.8313348421857L273.4040115194289,258.73274912346426L276.2976596089884,256.66066837315714L279.38671209540036,254.59074774632143L282.3801411535653,256.71558413307855L285.47335118033584,254.75338726365L288.46678023850086,254.24222592835713L291.5599902652713,254.97551237352857L294.6532002920419,258.46031252592854L297.64662935020687,253.3637602113L300.7398393769774,256.0981733623714L303.73742597550097,258.01681986053575L306.83063600227143,257.24340347715L309.92384602904195,254.53907398607143L312.7177131499959,250.5887187741643L315.8067656364079,248.40212379467144L318.8001946945729,249.90774609135002L321.8934047213434,245.897281035L324.8868337795084,244.84394442970716L327.9800438062789,244.2376470645643L331.07325383304936,243.5848626477857L334.0666828912144,242.1801909156643L337.1598929179849,242.116334043L340.15747951650843,244.7252427818143L343.250689543279,243.3328669371857L346.3438995700495,236.27934503847857L349.1377666910035,236.21981016940717L352.22681917741545,236.8716824657143L355.22024823558047,238.86823165596428L358.31345826235093,236.89622281750715L361.30688732051595,240.07006941964283L364.4000973472865,243.52303011379286L367.49330737405694,243.05754844463573L370.48673643222196,240.93288726919286L373.5799464589924,238.44222188382858L376.577533057516,245.14064770442144L379.6707430842865,243.28991169244287L382.76395311105705,237.3801944091643L385.55782023201107,240.58186882358572L388.64687271842297,235.75898765329288L391.64030177658793,238.9831002708643L394.7335118033585,237.81315935717143L397.7269408615235,240.58679944060714L400.820150888294,238.91692142367856L403.9133609150645,239.36645564102142L406.9067899732295,238.2309615213L410,240.39492524393575" data-legend="r" style="stroke: rgb(31, 119, 180); fill: none;"></path><path class="line" d="M3.093210026770504,216.5060685583286L6.086639084935507,224.24766516777856L9.179849111706012,222.7507332711857L12.177435710229577,221.0592264639643L15.27064573700008,214.08965899086428L18.363855763770584,222.40213158435L21.15772288472459,219.14743702660715L24.24677537113653,222.19948538202857L27.24020442930153,216.0189753532929L30.333414456072035,220.02038995795715L33.32684351423704,222.44046878057145L36.42005354100754,224.72630749523574L39.51326356777805,223.61198992840713L42.50669262594305,215.5011655011857L45.59990265271356,212.42294642389288L48.59748925123712,209.17721880970714L51.69069927800763,206.27070735527144L54.78390930477812,210.12628557302142L57.57777642573213,214.4624039147143L60.66682891214407,221.71837571734284L63.660257970309075,216.57724728424284L66.75346799707958,214.63059431232858L69.74689705524459,208.0048100207357L72.84010708201508,215.58759380097857L75.93331710878559,220.6270952475L78.92674616695061,209.81530877537142L82.0199561937211,219.11996586715713L85.01754279224467,223.0813676349643L88.11075281901518,221.76235314769286L91.20396284578568,221.8271554676143L93.99782996673969,220.09692439444285L97.08688245315162,224.94802370597145L100.08031151131662,224.58295162967144L103.17352153808713,224.83856932515002L106.16695059625212,221.78515059426428L109.26016062302264,223.31171918387145L112.35337064979313,226.05048600192856L115.34679970795814,223.2408751314643L118.44000973472863,223.71782275497856L121.43759633325222,225.1411729740643L124.53080636002271,222.34677129280715L127.6240163867932,222.27532801765716L130.5176644763527,219.19832818255713L133.60671696276466,218.18615340801432L136.60014602092969,218.5749584209286L139.69335604770018,213.38273543702144L142.68678510586517,213.34205527405715L145.77999513263566,210.87231352718572L148.87320515940618,214.48127846565L151.86663421757117,211.927952172L154.9598442443417,207.0203550818143L157.95743084286525,208.5366821389286L161.05064086963574,210.18607519180716L164.14385089640626,205.68476529600002L166.93771801736028,205.69879829065712L170.0267705037722,200.6345955990643L173.0201995619372,199.2107193572786L176.11340958870773,196.9342681968643L179.10683864687272,195.2479974297429L182.20004867364324,199.80427310487858L185.29325870041373,196.747678944L188.28668775857872,189.3675180866143L191.37989778534921,184.42262659457145L194.3774843838728,190.16824318326428L197.4706944106433,188.19402961405717L200.5639044374138,186.83279044847143L203.3577715583678,182.00255059165715L206.44682404477973,181.19712517697144L209.44025310294475,187.1963491578643L212.53346312971524,182.23907435190003L215.52689218788026,179.5231123196143L218.62010221465076,180.2757634295143L221.7133122414213,186.51029792496428L224.70674129958627,180.79075015125002L227.7999513263568,176.38474525313572L230.79753792488037,174.85155498735003L233.89074795165087,174.35049679789287L236.98395797842136,169.50267421960714L239.77782509937535,168.13778256190716L242.8668775857873,169.83214761111432L245.8603066439523,169.76158452880716L248.9535166707228,164.46055346037858L251.9469457288878,164.02395260505003L255.0401557556583,166.51508460128574L258.1333657824288,166.9216079681143L261.1267948405938,155.3166709872643L264.2200048673643,151.0253846147786L267.2175914658879,154.22630236892144L270.3108014926584,152.75414836718573L273.4040115194289,148.06200487300717L276.2976596089884,149.16118800379286L279.38671209540036,149.86497586197856L282.3801411535653,150.24979212415715L285.47335118033584,148.57809714934288L288.46678023850086,143.11794308839285L291.5599902652713,146.25234910371432L294.6532002920419,144.17275482495L297.64662935020687,133.2505446837429L300.7398393769774,124.73731109620715L303.73742597550097,125.99181607167858L306.83063600227143,125.09330634743574L309.92384602904195,117.47906113092856L312.7177131499959,116.11768810427145L315.8067656364079,110.38927382288571L318.8001946945729,112.35924920580004L321.8934047213434,105.33665123562858L324.8868337795084,96.25367467125005L327.9800438062789,98.9783588095286L331.07325383304936,93.63236312899289L334.0666828912144,83.97119784998574L337.1598929179849,82.22467286477143L340.15747951650843,77.13609425333573L343.250689543279,80.47540119040718L346.3438995700495,68.69204971395004L349.1377666910035,75.39040564251431L352.22681917741545,73.56666584042145L355.22024823558047,72.35595765377144L358.31345826235093,63.878308915757174L361.30688732051595,56.24614184997861L364.4000973472865,56.22862371199284L367.49330737405694,58.54310909269287L370.48673643222196,53.53136601032145L373.5799464589924,37.70783830920004L376.577533057516,43.09001264779289L379.6707430842865,62.28614187670715L382.76395311105705,48.88323125509288L385.55782023201107,40.13502234233573L388.64687271842297,30.622750883635717L391.64030177658793,37.124324464435745L394.7335118033585,29.931822186492866L397.7269408615235,24.458231896821474L400.820150888294,23.023330661807165L403.9133609150645,39.16924268970007L406.9067899732295,17.555511625242843L410,8.800905730757165" data-legend="python" style="stroke: rgb(255, 127, 14); fill: none;"></path><path class="line" d="M3.093210026770504,300L6.086639084935507,300L9.179849111706012,300L12.177435710229577,300L15.27064573700008,300L18.363855763770584,300L21.15772288472459,300L24.24677537113653,300L27.24020442930153,300L30.333414456072035,300L33.32684351423704,300L36.42005354100754,300L39.51326356777805,300L42.50669262594305,300L45.59990265271356,300L48.59748925123712,300L51.69069927800763,300L54.78390930477812,300L57.57777642573213,300L60.66682891214407,300L63.660257970309075,300L66.75346799707958,300L69.74689705524459,300L72.84010708201508,300L75.93331710878559,300L78.92674616695061,300L82.0199561937211,300L85.01754279224467,300L88.11075281901518,300L91.20396284578568,300L93.99782996673969,299.9787322130571L97.08688245315162,299.95519284998574L100.08031151131662,300L103.17352153808713,299.9783894679L106.16695059625212,300L109.26016062302264,300L112.35337064979313,299.97901546142145L115.34679970795814,299.91553328764286L118.44000973472863,299.96069954805L121.43759633325222,299.97936067632855L124.53080636002271,299.8895140212857L127.6240163867932,299.9310645924857L130.5176644763527,299.52093870465L133.60671696276466,299.5694879556L136.60014602092969,299.3003901914786L139.69335604770018,299.18208437618574L142.68678510586517,299.00445180994285L145.77999513263566,298.66498103667857L148.87320515940618,298.4894128959857L151.86663421757117,298.5235317502929L154.9598442443417,298.2582645348L157.95743084286525,298.0478937885L161.05064086963574,297.8780899182214L164.14385089640626,297.4148786244L166.93771801736028,297.87355215124285L170.0267705037722,297.63148578143574L173.0201995619372,297.0982958694L176.11340958870773,296.67834795970714L179.10683864687272,296.50059776410717L182.20004867364324,296.4260755541143L185.29325870041373,296.8860206013643L188.28668775857872,295.83241752289285L191.37989778534921,295.6820710533857L194.3774843838728,295.6941399788143L197.4706944106433,294.8911354970571L200.5639044374138,295.3781423319857L203.3577715583678,294.56678701600714L206.44682404477973,294.56191760335713L209.44025310294475,294.38649072015L212.53346312971524,293.91413008427145L215.52689218788026,294.14750695864285L218.62010221465076,293.70767506662855L221.7133122414213,293.7143372361214L224.70674129958627,293.9708272223143L227.7999513263568,293.38303126551426L230.79753792488037,294.24129788472857L233.89074795165087,293.7394689693L236.98395797842136,293.1518553753643L239.77782509937535,292.36777595862856L242.8668775857873,292.02014470137857L245.8603066439523,292.23338279586426L248.9535166707228,291.1684290404786L251.9469457288878,290.5207154990357L255.0401557556583,291.04096270939283L258.1333657824288,290.2905734325429L261.1267948405938,289.0728835971857L264.2200048673643,289.18742362210713L267.2175914658879,288.83844132263573L270.3108014926584,289.1668105284857L273.4040115194289,288.1260942507L276.2976596089884,288.1054408888286L279.38671209540036,286.91338176015L282.3801411535653,285.45816446183574L285.47335118033584,284.9956997021143L288.46678023850086,282.0598346533071L291.5599902652713,283.7223723258214L294.6532002920419,283.4846749346786L297.64662935020687,283.4012856011786L300.7398393769774,281.52603258115715L303.73742597550097,281.18866374372857L306.83063600227143,281.24518012112145L309.92384602904195,280.7419045813286L312.7177131499959,278.76716873466427L315.8067656364079,277.77452267337856L318.8001946945729,277.76888893000717L321.8934047213434,276.02691951964283L324.8868337795084,275.0490222735643L327.9800438062789,273.9362361688286L331.07325383304936,273.7882498623L334.0666828912144,272.3768112267643L337.1598929179849,272.64725553565717L340.15747951650843,272.17723516465713L343.250689543279,270.53631970382145L346.3438995700495,268.77377899277144L349.1377666910035,266.61866409767146L352.22681917741545,267.01498932370714L355.22024823558047,266.76193509670713L358.31345826235093,262.28038850595L361.30688732051595,259.4826559234286L364.4000973472865,260.29728925069287L367.49330737405694,261.99856312975714L370.48673643222196,261.0245636514L373.5799464589924,258.0085448229857L376.577533057516,261.09944669888574L379.6707430842865,262.29349109659285L382.76395311105705,259.1587788011786L385.55782023201107,259.4195146020643L388.64687271842297,258.39835676314283L391.64030177658793,258.3379233032357L394.7335118033585,256.2875847704786L397.7269408615235,253.5037682585786L400.820150888294,250.07333936155715L403.9133609150645,255.30349131642856L406.9067899732295,250.76173045774286L410,253.0841939519786" data-legend="pandas" style="stroke: rgb(44, 160, 44); fill: none;"></path><path class="line" d="M3.093210026770504,298.3085943906857L6.086639084935507,296.8868903493643L9.179849111706012,298.12418999115L12.177435710229577,297.6729477189L15.27064573700008,297.4131593040214L18.363855763770584,296.6796474687643L21.15772288472459,297.5691386295643L24.24677537113653,296.7583118909357L27.24020442930153,296.47983729025714L30.333414456072035,296.63565693897857L33.32684351423704,297.3991214810357L36.42005354100754,297.7549951358357L39.51326356777805,296.6617065007286L42.50669262594305,295.8374958375L45.59990265271356,293.42750784580716L48.59748925123712,294.2234880981L51.69069927800763,295.5824308794643L54.78390930477812,294.65381441513574L57.57777642573213,294.9222372980357L60.66682891214407,291.9865811136214L63.660257970309075,291.41297373835715L66.75346799707958,294.35510270363574L69.74689705524459,294.64897007440715L72.84010708201508,295.26343211710713L75.93331710878559,294.1896498295714L78.92674616695061,294.53016848432145L82.0199561937211,295.1768786985L85.01754279224467,294.4593822159643L88.11075281901518,295.24448369065715L91.20396284578568,292.4958209485714L93.99782996673969,290.8335838206214L97.08688245315162,291.441834345L100.08031151131662,293.4819496308L103.17352153808713,293.2359034499143L106.16695059625212,293.9589292273071L109.26016062302264,294.8861162050286L112.35337064979313,294.3971281959643L115.34679970795814,291.5322120846643L118.44000973472863,291.4914521517L121.43759633325222,291.97130308435715L124.53080636002271,291.5294082984857L127.6240163867932,290.4007445024143L130.5176644763527,290.75411699955L133.60671696276466,289.70082724547143L136.60014602092969,291.39797939967855L139.69335604770018,291.44460257481427L142.68678510586517,291.58309257492857L145.77999513263566,290.94310998737143L148.87320515940618,291.0176917362857L151.86663421757117,289.1773443831214L154.9598442443417,287.7207649702286L157.95743084286525,289.3189635744429L161.05064086963574,290.12495692705716L164.14385089640626,288.6866193561857L166.93771801736028,287.72068554385714L170.0267705037722,286.86097901912143L173.0201995619372,286.9166526146786L176.11340958870773,287.82060918559284L179.10683864687272,287.9276677190571L182.20004867364324,288.49800371991427L185.29325870041373,288.39687344410714L188.28668775857872,287.1257688938357L191.37989778534921,285.37240924264285L194.3774843838728,286.3065893019857L197.4706944106433,287.3581091235429L200.5639044374138,285.91813316415L203.3577715583678,285.3056285205429L206.44682404477973,284.44378853807143L209.44025310294475,284.73561947440714L212.53346312971524,286.4218064299071L215.52689218788026,286.5573664988143L218.62010221465076,287.8993751281071L221.7133122414213,286.15350928037145L224.70674129958627,284.72279423479284L227.7999513263568,284.13212352019286L230.79753792488037,286.08543268795717L233.89074795165087,286.8851556140143L236.98395797842136,284.79890429687146L239.77782509937535,284.29457897260716L242.8668775857873,282.68201616045L245.8603066439523,283.84173231445715L248.9535166707228,286.0204926003214L251.9469457288878,287.59555346046426L255.0401557556583,287.8413065341929L258.1333657824288,288.63404611030717L261.1267948405938,287.7805530405643L264.2200048673643,286.46014431250717L267.2175914658879,289.07539061299286L270.3108014926584,288.90548358947143L273.4040115194289,287.7261070503L276.2976596089884,286.77077312500717L279.38671209540036,287.7230889087643L282.3801411535653,287.06129097542146L285.47335118033584,288.41957819687144L288.46678023850086,289.0629541878429L291.5599902652713,288.90701029493573L294.6532002920419,289.35427676535L297.64662935020687,288.97107643279287L300.7398393769774,290.43686030350716L303.73742597550097,290.2553289923357L306.83063600227143,290.3480399972786L309.92384602904195,289.55827051467855L312.7177131499959,288.47391165687856L315.8067656364079,288.5431950119786L318.8001946945729,288.47404173855L321.8934047213434,290.3357763351214L324.8868337795084,291.24316647100716L327.9800438062789,291.2472434895429L331.07325383304936,292.30944589868574L334.0666828912144,291.16412915331426L337.1598929179849,290.42717762565L340.15747951650843,292.5697200519857L343.250689543279,292.19683352886426L346.3438995700495,292.4048135727L349.1377666910035,292.92440468912145L352.22681917741545,291.96621116781427L355.22024823558047,293.2004268621L358.31345826235093,293.5665475390286L361.30688732051595,293.73219836035713L364.4000973472865,294.47211914807144L367.49330737405694,293.55199500081426L370.48673643222196,292.9940847885857L373.5799464589924,292.78833031172144L376.577533057516,293.1111968942357L379.6707430842865,293.9995289818286L382.76395311105705,294.2620825665214L385.55782023201107,293.6247135156214L388.64687271842297,292.69387663547144L391.64030177658793,293.09884527158573L394.7335118033585,294.1039067830071L397.7269408615235,294.54913627887856L400.820150888294,294.8748092139857L403.9133609150645,295.09214806613574L406.9067899732295,293.6270039664857L410,293.92294628884287" data-legend="matlab" style="stroke: rgb(214, 39, 40); fill: none;"></path></g></g><g transform="translate(20, 150)"><text transform="rotate(-90)" x="-50" y="0" dy="1em" class="axis-label y-axis-label" style="text-anchor: middle; font-weight: bold;">% of Stack Overflow questions that month</text></g><g class="legend" transform="translate(530, 30)" style="font-size: 12px;"><text class="legend-title" style="font-weight: bold;">Tag</text><g class="legend-items" transform="translate(0,20)"><text y="0em" x="1em">python</text><text y="1em" x="1em">r</text><text y="2em" x="1em">pandas</text><text y="3em" x="1em">matlab</text><circle cy="-0.25em" cx="0" r="0.4em" style="fill: rgb(255, 127, 14);"></circle><circle cy="0.75em" cx="0" r="0.4em" style="fill: rgb(31, 119, 180);"></circle><circle cy="1.75em" cx="0" r="0.4em" style="fill: rgb(44, 160, 44);"></circle><circle cy="2.75em" cx="0" r="0.4em" style="fill: rgb(214, 39, 40);"></circle></g><rect class="legend-box"></rect></g></svg>
        